<svg width="28" height="28" viewBox="0 0 28 28" fill="none" xmlns="http://www.w3.org/2000/svg">
<g clip-path="url(#clip0_64_65539)">
<path d="M14.0039 25.5C20.3552 25.5 25.5039 20.3513 25.5039 14C25.5039 7.64872 20.3552 2.5 14.0039 2.5C7.65263 2.5 2.50391 7.64872 2.50391 14C2.50391 20.3513 7.65263 25.5 14.0039 25.5Z" fill="#35C27B"/>
<path d="M4.28167 25.4543L11.3842 23.5489L4.45281 16.6094L2.54969 23.7203C2.26793 24.773 3.23015 25.7364 4.28167 25.4543Z" fill="#35C27B"/>
<path d="M19.2518 15.8724L16.9682 15.4154C16.6203 15.3476 16.2687 15.4765 16.0502 15.7559L15.0235 17.0739C13.7456 16.3467 12.668 15.2724 11.9384 13.9974L13.1638 13.2342C13.4898 13.0318 13.6563 12.6566 13.5882 12.2777L13.1312 9.76355C13.0502 9.32104 12.6652 9 12.2156 9H9.93085C9.41771 9 9 9.41772 9 9.93089C9 11.3601 9.29376 12.7417 9.87301 14.037C10.8762 16.2822 12.6614 18.0796 14.8999 19.0993C16.2121 19.6967 17.6152 20 19.0691 20C19.5823 20 20 19.5827 20 19.0695V16.7847C20 16.3417 19.6852 15.9583 19.2518 15.8724Z" fill="white"/>
</g>
<defs>
<clipPath id="clip0_64_65539">
<rect width="28" height="28" fill="white"/>
</clipPath>
</defs>
</svg>
