<svg width="28" height="28" viewBox="0 0 28 28" fill="none" xmlns="http://www.w3.org/2000/svg">
<g clip-path="url(#clip0_1161_19680)">
<path d="M14 26C20.6274 26 26 20.6274 26 14C26 7.37258 20.6274 2 14 2C7.37258 2 2 7.37258 2 14C2 20.6274 7.37258 26 14 26Z" fill="#FFD874"/>
<mask id="mask0_1161_19680" style="mask-type:alpha" maskUnits="userSpaceOnUse" x="2" y="2" width="24" height="24">
<rect x="2" y="2" width="24" height="24" rx="12" fill="#FFD874"/>
</mask>
<g mask="url(#mask0_1161_19680)">
<path d="M14 27C21.1797 27 27 21.1797 27 14C27 6.8203 21.1797 1 14 1C6.8203 1 1 6.8203 1 14C1 21.1797 6.8203 27 14 27Z" fill="#FFD874"/>
<path d="M3.68186 13.6458C3.68186 15.4631 4.90525 16.9708 5.9654 16.9708C7.02555 16.9708 7.521 15.4631 7.521 13.6458C7.521 11.8285 7.02555 10.3894 5.9654 10.3894C4.90525 10.3894 3.68186 11.8285 3.68186 13.6458Z" fill="#6B76C5"/>
<path d="M5.12034 13.6798C5.12034 15.8001 5.97976 17.519 7.03991 17.519C8.47958 17.519 8.95947 15.8001 8.95947 13.6798C8.95947 11.5595 8.71953 9.84071 7.03991 9.84071C5.97976 9.84071 5.12034 11.5595 5.12034 13.6798Z" fill="#4F5380"/>
<path d="M11.0641 20.5485C10.1237 20.5484 8.31093 24.3965 7.65381 25.8846L11.7083 28H16.75L19.923 25.4615C19.923 25.4615 18.003 20.9806 16.4105 20.5485C14.818 20.1163 12.0046 20.5486 11.0641 20.5485Z" fill="#DFD9D6"/>
<circle cx="13.7598" cy="13.6783" r="7.67827" fill="#E5E2E1"/>
<ellipse cx="12.3193" cy="13.6757" rx="5.27881" ry="5.50832" fill="#C9CED7"/>
<path d="M19.5191 16.5581C18.9156 16.9988 17.303 17.6638 15.6799 17.7579" stroke="#6B76C5" stroke-width="0.942122" stroke-linecap="round"/>
<path d="M22.878 13.6798C22.878 15.8001 22.0185 17.519 20.9584 17.519C19.5187 17.519 19.0388 15.8001 19.0388 13.6798C19.0388 11.5595 19.2788 9.84071 20.9584 9.84071C22.0185 9.84071 22.878 11.5595 22.878 13.6798Z" fill="#4F5380"/>
<path d="M24.3179 13.6458C24.3179 15.4631 23.0945 16.9708 22.0344 16.9708C20.9742 16.9708 20.4788 15.4631 20.4788 13.6458C20.4788 11.8285 20.9742 10.3894 22.0344 10.3894C23.0945 10.3894 24.3179 11.8285 24.3179 13.6458Z" fill="#6B76C5"/>
<rect x="13.2808" y="17.2372" width="2.87935" height="1.43968" rx="0.719838" transform="rotate(-3.92822 13.2808 17.2372)" fill="#4F5380"/>
</g>
</g>
<defs>
<clipPath id="clip0_1161_19680">
<rect width="28" height="28" fill="white"/>
</clipPath>
</defs>
</svg>
